<mxfile host="app.diagrams.net" modified="2023-04-27T12:18:16.007Z" agent="Mozilla/5.0 (Windows NT 10.0; Win64; x64) AppleWebKit/537.36 (KHTML, like Gecko) Chrome/112.0.0.0 Safari/537.36" etag="MbuHBHcGCa3LEnn7GEcl" version="21.2.3" type="github">
  <diagram id="J8FQTKoWVw-aCeoMksY5" name="carrinho-vendedor-cliente">
    <mxGraphModel dx="1434" dy="806" grid="1" gridSize="10" guides="1" tooltips="1" connect="1" arrows="1" fold="1" page="1" pageScale="1" pageWidth="3300" pageHeight="4681" math="0" shadow="0">
      <root>
        <mxCell id="0" />
        <mxCell id="1" parent="0" />
        <mxCell id="pwsCvkK8GLsZa0NGq3Bh-3" value="&lt;h1&gt;Fluxo sem cliente&lt;/h1&gt;&lt;p&gt;request = {&lt;/p&gt;&lt;p&gt;&amp;nbsp; &amp;nbsp; &amp;nbsp; &amp;nbsp; matriculaVendedor: 123&lt;/p&gt;&lt;p&gt;}&lt;/p&gt;" style="text;html=1;strokeColor=none;fillColor=none;spacing=5;spacingTop=-20;whiteSpace=wrap;overflow=hidden;rounded=0;fontSize=18;" parent="1" vertex="1">
          <mxGeometry x="80" y="70" width="370" height="200" as="geometry" />
        </mxCell>
        <mxCell id="pwsCvkK8GLsZa0NGq3Bh-4" value="&lt;h1&gt;Fluxo com cliente por nome&lt;/h1&gt;&lt;p&gt;request = {&lt;/p&gt;&lt;p&gt;&amp;nbsp; &amp;nbsp; &amp;nbsp; &amp;nbsp; matriculaVendedor: 123,&lt;/p&gt;&lt;p&gt;&lt;span style=&quot;white-space: pre;&quot;&gt; &lt;/span&gt;cliente: {&lt;/p&gt;&lt;p&gt;&lt;span style=&quot;white-space: pre;&quot;&gt; &lt;/span&gt;&lt;span style=&quot;white-space: pre;&quot;&gt; &lt;/span&gt;nome: &quot;JOAO&quot;&lt;br&gt;&lt;/p&gt;&lt;p&gt;&lt;span style=&quot;white-space: pre;&quot;&gt; &lt;/span&gt;}&lt;br&gt;&lt;/p&gt;&lt;p&gt;}&lt;/p&gt;" style="text;html=1;strokeColor=none;fillColor=none;spacing=5;spacingTop=-20;whiteSpace=wrap;overflow=hidden;rounded=0;fontSize=18;" parent="1" vertex="1">
          <mxGeometry x="60" y="490" width="530" height="320" as="geometry" />
        </mxCell>
        <mxCell id="pwsCvkK8GLsZa0NGq3Bh-5" value="&lt;h1&gt;Fluxo com cliente codigo (merge)&lt;/h1&gt;&lt;p&gt;request = {&lt;/p&gt;&lt;p&gt;&amp;nbsp; &amp;nbsp; &amp;nbsp; &amp;nbsp; matriculaVendedor: 123,&lt;/p&gt;&lt;p&gt;&lt;span style=&quot;white-space: pre;&quot;&gt; &lt;/span&gt;cliente: {&lt;/p&gt;&lt;p&gt;&lt;span style=&quot;white-space: pre;&quot;&gt; &lt;/span&gt;&lt;span style=&quot;white-space: pre;&quot;&gt; &lt;/span&gt;&quot;codigo&quot;: 456,&lt;br&gt;&lt;/p&gt;&lt;p&gt;&lt;span style=&quot;white-space: pre;&quot;&gt; &lt;/span&gt;&lt;span style=&quot;white-space: pre;&quot;&gt; &lt;/span&gt;&quot;tipoPessoa&quot;: &quot;FISICA&quot;&lt;br&gt;&lt;/p&gt;&lt;p&gt;&lt;span style=&quot;white-space: pre;&quot;&gt; &lt;/span&gt;}&lt;br&gt;&lt;/p&gt;&lt;p&gt;}&lt;/p&gt;" style="text;html=1;strokeColor=none;fillColor=none;spacing=5;spacingTop=-20;whiteSpace=wrap;overflow=hidden;rounded=0;fontSize=18;" parent="1" vertex="1">
          <mxGeometry x="70" y="1190" width="630" height="320" as="geometry" />
        </mxCell>
        <mxCell id="pwsCvkK8GLsZa0NGq3Bh-8" value="" style="edgeStyle=orthogonalEdgeStyle;rounded=0;orthogonalLoop=1;jettySize=auto;html=1;fontSize=30;" parent="1" source="pwsCvkK8GLsZa0NGq3Bh-6" target="pwsCvkK8GLsZa0NGq3Bh-7" edge="1">
          <mxGeometry relative="1" as="geometry" />
        </mxCell>
        <mxCell id="pwsCvkK8GLsZa0NGq3Bh-6" value="" style="ellipse;whiteSpace=wrap;html=1;aspect=fixed;fontSize=30;" parent="1" vertex="1">
          <mxGeometry x="90" y="330" width="40" height="40" as="geometry" />
        </mxCell>
        <mxCell id="pwsCvkK8GLsZa0NGq3Bh-11" style="edgeStyle=orthogonalEdgeStyle;rounded=0;orthogonalLoop=1;jettySize=auto;html=1;entryX=0;entryY=0.5;entryDx=0;entryDy=0;fontSize=14;" parent="1" source="pwsCvkK8GLsZa0NGq3Bh-7" target="pwsCvkK8GLsZa0NGq3Bh-10" edge="1">
          <mxGeometry relative="1" as="geometry" />
        </mxCell>
        <mxCell id="pwsCvkK8GLsZa0NGq3Bh-7" value="consulta carrinho pela matricula do vendedor" style="whiteSpace=wrap;html=1;fontSize=14;fillColor=#ffe6cc;strokeColor=#d79b00;" parent="1" vertex="1">
          <mxGeometry x="230" y="320" width="150" height="60" as="geometry" />
        </mxCell>
        <mxCell id="pwsCvkK8GLsZa0NGq3Bh-9" value="" style="ellipse;whiteSpace=wrap;html=1;aspect=fixed;fontSize=30;fillColor=#303030;" parent="1" vertex="1">
          <mxGeometry x="660" y="330" width="40" height="40" as="geometry" />
        </mxCell>
        <mxCell id="pwsCvkK8GLsZa0NGq3Bh-12" style="edgeStyle=orthogonalEdgeStyle;rounded=0;orthogonalLoop=1;jettySize=auto;html=1;entryX=0;entryY=0.5;entryDx=0;entryDy=0;fontSize=14;" parent="1" source="pwsCvkK8GLsZa0NGq3Bh-10" target="pwsCvkK8GLsZa0NGq3Bh-9" edge="1">
          <mxGeometry relative="1" as="geometry" />
        </mxCell>
        <mxCell id="pwsCvkK8GLsZa0NGq3Bh-10" value="return carrinho" style="whiteSpace=wrap;html=1;fontSize=14;fillColor=#d5e8d4;strokeColor=#82b366;" parent="1" vertex="1">
          <mxGeometry x="440" y="320" width="150" height="60" as="geometry" />
        </mxCell>
        <mxCell id="pwsCvkK8GLsZa0NGq3Bh-13" value="" style="edgeStyle=orthogonalEdgeStyle;rounded=0;orthogonalLoop=1;jettySize=auto;html=1;fontSize=30;" parent="1" source="pwsCvkK8GLsZa0NGq3Bh-14" target="pwsCvkK8GLsZa0NGq3Bh-16" edge="1">
          <mxGeometry relative="1" as="geometry" />
        </mxCell>
        <mxCell id="pwsCvkK8GLsZa0NGq3Bh-14" value="" style="ellipse;whiteSpace=wrap;html=1;aspect=fixed;fontSize=30;" parent="1" vertex="1">
          <mxGeometry x="70" y="860" width="40" height="40" as="geometry" />
        </mxCell>
        <mxCell id="pwsCvkK8GLsZa0NGq3Bh-22" value="" style="edgeStyle=orthogonalEdgeStyle;rounded=0;orthogonalLoop=1;jettySize=auto;html=1;fontSize=14;" parent="1" source="pwsCvkK8GLsZa0NGq3Bh-16" target="pwsCvkK8GLsZa0NGq3Bh-21" edge="1">
          <mxGeometry relative="1" as="geometry" />
        </mxCell>
        <mxCell id="pwsCvkK8GLsZa0NGq3Bh-16" value="consulta carrinho pela matricula do vendedor" style="whiteSpace=wrap;html=1;fontSize=14;fillColor=#ffe6cc;strokeColor=#d79b00;" parent="1" vertex="1">
          <mxGeometry x="210" y="850" width="150" height="60" as="geometry" />
        </mxCell>
        <mxCell id="pwsCvkK8GLsZa0NGq3Bh-17" value="" style="ellipse;whiteSpace=wrap;html=1;aspect=fixed;fontSize=30;fillColor=#303030;" parent="1" vertex="1">
          <mxGeometry x="1530" y="860" width="40" height="40" as="geometry" />
        </mxCell>
        <mxCell id="pwsCvkK8GLsZa0NGq3Bh-24" style="edgeStyle=orthogonalEdgeStyle;rounded=0;orthogonalLoop=1;jettySize=auto;html=1;entryX=0;entryY=0.5;entryDx=0;entryDy=0;fontSize=14;" parent="1" source="pwsCvkK8GLsZa0NGq3Bh-19" target="pwsCvkK8GLsZa0NGq3Bh-17" edge="1">
          <mxGeometry relative="1" as="geometry" />
        </mxCell>
        <mxCell id="pwsCvkK8GLsZa0NGq3Bh-19" value="return carrinho" style="whiteSpace=wrap;html=1;fontSize=14;fillColor=#d5e8d4;strokeColor=#82b366;" parent="1" vertex="1">
          <mxGeometry x="1290" y="850" width="150" height="60" as="geometry" />
        </mxCell>
        <mxCell id="pwsCvkK8GLsZa0NGq3Bh-23" value="N" style="edgeStyle=orthogonalEdgeStyle;rounded=0;orthogonalLoop=1;jettySize=auto;html=1;entryX=0.5;entryY=1;entryDx=0;entryDy=0;fontSize=14;exitX=0.5;exitY=1;exitDx=0;exitDy=0;" parent="1" source="pwsCvkK8GLsZa0NGq3Bh-21" target="pwsCvkK8GLsZa0NGq3Bh-19" edge="1">
          <mxGeometry relative="1" as="geometry">
            <Array as="points">
              <mxPoint x="536" y="1050" />
              <mxPoint x="1365" y="1050" />
            </Array>
          </mxGeometry>
        </mxCell>
        <mxCell id="pwsCvkK8GLsZa0NGq3Bh-26" value="S" style="edgeStyle=orthogonalEdgeStyle;rounded=0;orthogonalLoop=1;jettySize=auto;html=1;entryX=0;entryY=0.5;entryDx=0;entryDy=0;fontSize=14;" parent="1" source="pwsCvkK8GLsZa0NGq3Bh-21" target="pwsCvkK8GLsZa0NGq3Bh-25" edge="1">
          <mxGeometry relative="1" as="geometry" />
        </mxCell>
        <mxCell id="pwsCvkK8GLsZa0NGq3Bh-21" value="carrinho encontrado&amp;nbsp;possui nome identificado?" style="rhombus;whiteSpace=wrap;html=1;fontSize=14;spacing=9;" parent="1" vertex="1">
          <mxGeometry x="440" y="810" width="192.5" height="140" as="geometry" />
        </mxCell>
        <mxCell id="pwsCvkK8GLsZa0NGq3Bh-27" style="edgeStyle=orthogonalEdgeStyle;rounded=0;orthogonalLoop=1;jettySize=auto;html=1;entryX=0.5;entryY=1;entryDx=0;entryDy=0;fontSize=14;exitX=0.5;exitY=1;exitDx=0;exitDy=0;" parent="1" source="pwsCvkK8GLsZa0NGq3Bh-25" target="pwsCvkK8GLsZa0NGq3Bh-19" edge="1">
          <mxGeometry relative="1" as="geometry">
            <Array as="points">
              <mxPoint x="826" y="1050" />
              <mxPoint x="1365" y="1050" />
            </Array>
          </mxGeometry>
        </mxCell>
        <mxCell id="pwsCvkK8GLsZa0NGq3Bh-30" value="S" style="edgeStyle=orthogonalEdgeStyle;rounded=0;orthogonalLoop=1;jettySize=auto;html=1;entryX=0;entryY=0.5;entryDx=0;entryDy=0;fontSize=14;" parent="1" source="pwsCvkK8GLsZa0NGq3Bh-25" target="pwsCvkK8GLsZa0NGq3Bh-28" edge="1">
          <mxGeometry relative="1" as="geometry" />
        </mxCell>
        <mxCell id="pwsCvkK8GLsZa0NGq3Bh-25" value="o nome registrado no carrinho Ã© diferente do nome no request?" style="rhombus;whiteSpace=wrap;html=1;fontSize=14;spacing=9;" parent="1" vertex="1">
          <mxGeometry x="730" y="810" width="192.5" height="140" as="geometry" />
        </mxCell>
        <mxCell id="pwsCvkK8GLsZa0NGq3Bh-31" style="edgeStyle=orthogonalEdgeStyle;rounded=0;orthogonalLoop=1;jettySize=auto;html=1;entryX=0;entryY=0.5;entryDx=0;entryDy=0;fontSize=14;" parent="1" source="pwsCvkK8GLsZa0NGq3Bh-28" target="pwsCvkK8GLsZa0NGq3Bh-19" edge="1">
          <mxGeometry relative="1" as="geometry">
            <mxPoint x="1260" y="880" as="targetPoint" />
          </mxGeometry>
        </mxCell>
        <mxCell id="pwsCvkK8GLsZa0NGq3Bh-28" value="identifica cliente no carrinho" style="whiteSpace=wrap;html=1;fontSize=14;fillColor=#dae8fc;strokeColor=#6c8ebf;" parent="1" vertex="1">
          <mxGeometry x="1035.25" y="850" width="150" height="60" as="geometry" />
        </mxCell>
        <mxCell id="pwsCvkK8GLsZa0NGq3Bh-81" style="edgeStyle=orthogonalEdgeStyle;rounded=0;orthogonalLoop=1;jettySize=auto;html=1;entryX=0;entryY=0.5;entryDx=0;entryDy=0;fontSize=14;" parent="1" source="pwsCvkK8GLsZa0NGq3Bh-34" target="pwsCvkK8GLsZa0NGq3Bh-77" edge="1">
          <mxGeometry relative="1" as="geometry" />
        </mxCell>
        <mxCell id="pwsCvkK8GLsZa0NGq3Bh-34" value="" style="ellipse;whiteSpace=wrap;html=1;aspect=fixed;fontSize=30;" parent="1" vertex="1">
          <mxGeometry x="70" y="1650" width="40" height="40" as="geometry" />
        </mxCell>
        <mxCell id="pwsCvkK8GLsZa0NGq3Bh-83" style="edgeStyle=orthogonalEdgeStyle;rounded=0;orthogonalLoop=1;jettySize=auto;html=1;entryX=0;entryY=0.5;entryDx=0;entryDy=0;fontSize=14;" parent="1" source="pwsCvkK8GLsZa0NGq3Bh-36" target="pwsCvkK8GLsZa0NGq3Bh-78" edge="1">
          <mxGeometry relative="1" as="geometry" />
        </mxCell>
        <mxCell id="pwsCvkK8GLsZa0NGq3Bh-36" value="consulta carrinho pelo codigo cliente" style="whiteSpace=wrap;html=1;fontSize=14;" parent="1" vertex="1">
          <mxGeometry x="470" y="1640" width="150" height="60" as="geometry" />
        </mxCell>
        <mxCell id="pwsCvkK8GLsZa0NGq3Bh-75" value="N" style="edgeStyle=orthogonalEdgeStyle;rounded=0;orthogonalLoop=1;jettySize=auto;html=1;entryX=0;entryY=0.5;entryDx=0;entryDy=0;fontSize=14;exitX=0.5;exitY=1;exitDx=0;exitDy=0;" parent="1" source="pwsCvkK8GLsZa0NGq3Bh-78" target="pwsCvkK8GLsZa0NGq3Bh-58" edge="1">
          <mxGeometry relative="1" as="geometry">
            <mxPoint x="553.75" y="1740" as="sourcePoint" />
            <mxPoint x="870" y="1930" as="targetPoint" />
          </mxGeometry>
        </mxCell>
        <mxCell id="pwsCvkK8GLsZa0NGq3Bh-66" value="S" style="edgeStyle=orthogonalEdgeStyle;rounded=0;orthogonalLoop=1;jettySize=auto;html=1;entryX=0;entryY=0.5;entryDx=0;entryDy=0;fontSize=14;exitX=1;exitY=0.5;exitDx=0;exitDy=0;" parent="1" source="pwsCvkK8GLsZa0NGq3Bh-78" target="pwsCvkK8GLsZa0NGq3Bh-65" edge="1">
          <mxGeometry relative="1" as="geometry">
            <mxPoint x="901.25" y="1670" as="sourcePoint" />
          </mxGeometry>
        </mxCell>
        <mxCell id="pwsCvkK8GLsZa0NGq3Bh-74" style="edgeStyle=orthogonalEdgeStyle;rounded=0;orthogonalLoop=1;jettySize=auto;html=1;entryX=0;entryY=0.5;entryDx=0;entryDy=0;fontSize=14;" parent="1" source="pwsCvkK8GLsZa0NGq3Bh-56" target="pwsCvkK8GLsZa0NGq3Bh-73" edge="1">
          <mxGeometry relative="1" as="geometry" />
        </mxCell>
        <mxCell id="pwsCvkK8GLsZa0NGq3Bh-56" value="return carrinho" style="whiteSpace=wrap;html=1;fontSize=14;fillColor=#d5e8d4;strokeColor=#82b366;" parent="1" vertex="1">
          <mxGeometry x="1830" y="1640" width="150" height="60" as="geometry" />
        </mxCell>
        <mxCell id="pwsCvkK8GLsZa0NGq3Bh-57" style="edgeStyle=orthogonalEdgeStyle;rounded=0;orthogonalLoop=1;jettySize=auto;html=1;entryX=0.5;entryY=1;entryDx=0;entryDy=0;fontSize=14;" parent="1" source="pwsCvkK8GLsZa0NGq3Bh-58" target="pwsCvkK8GLsZa0NGq3Bh-56" edge="1">
          <mxGeometry relative="1" as="geometry">
            <mxPoint x="1336.25" y="1940" as="targetPoint" />
          </mxGeometry>
        </mxCell>
        <mxCell id="pwsCvkK8GLsZa0NGq3Bh-58" value="identifica cliente no carrinho do vendedor" style="whiteSpace=wrap;html=1;fontSize=14;fillColor=#dae8fc;strokeColor=#6c8ebf;" parent="1" vertex="1">
          <mxGeometry x="1260" y="1890" width="150" height="60" as="geometry" />
        </mxCell>
        <mxCell id="pwsCvkK8GLsZa0NGq3Bh-69" value="S" style="edgeStyle=orthogonalEdgeStyle;rounded=0;orthogonalLoop=1;jettySize=auto;html=1;entryX=0;entryY=0.5;entryDx=0;entryDy=0;fontSize=14;" parent="1" source="pwsCvkK8GLsZa0NGq3Bh-65" target="pwsCvkK8GLsZa0NGq3Bh-68" edge="1">
          <mxGeometry relative="1" as="geometry" />
        </mxCell>
        <mxCell id="pwsCvkK8GLsZa0NGq3Bh-80" value="N" style="edgeStyle=orthogonalEdgeStyle;rounded=0;orthogonalLoop=1;jettySize=auto;html=1;entryX=0.5;entryY=0;entryDx=0;entryDy=0;fontSize=14;exitX=0.5;exitY=0;exitDx=0;exitDy=0;" parent="1" source="pwsCvkK8GLsZa0NGq3Bh-65" target="pwsCvkK8GLsZa0NGq3Bh-56" edge="1">
          <mxGeometry relative="1" as="geometry">
            <Array as="points">
              <mxPoint x="1089" y="1510" />
              <mxPoint x="1905" y="1510" />
            </Array>
          </mxGeometry>
        </mxCell>
        <mxCell id="pwsCvkK8GLsZa0NGq3Bh-65" value="vendedor possui carrinho ABERTO?" style="rhombus;whiteSpace=wrap;html=1;fontSize=14;spacing=9;" parent="1" vertex="1">
          <mxGeometry x="992.75" y="1600" width="192.5" height="140" as="geometry" />
        </mxCell>
        <mxCell id="pwsCvkK8GLsZa0NGq3Bh-71" style="edgeStyle=orthogonalEdgeStyle;rounded=0;orthogonalLoop=1;jettySize=auto;html=1;entryX=0;entryY=0.5;entryDx=0;entryDy=0;fontSize=14;" parent="1" source="pwsCvkK8GLsZa0NGq3Bh-68" target="pwsCvkK8GLsZa0NGq3Bh-70" edge="1">
          <mxGeometry relative="1" as="geometry" />
        </mxCell>
        <mxCell id="pwsCvkK8GLsZa0NGq3Bh-68" value="adiciona os produtos do carrinho do vendedor para o carrinho do cliente" style="whiteSpace=wrap;html=1;fontSize=14;" parent="1" vertex="1">
          <mxGeometry x="1270" y="1630" width="180" height="80" as="geometry" />
        </mxCell>
        <mxCell id="pwsCvkK8GLsZa0NGq3Bh-72" style="edgeStyle=orthogonalEdgeStyle;rounded=0;orthogonalLoop=1;jettySize=auto;html=1;entryX=0;entryY=0.5;entryDx=0;entryDy=0;fontSize=14;" parent="1" source="pwsCvkK8GLsZa0NGq3Bh-70" target="pwsCvkK8GLsZa0NGq3Bh-56" edge="1">
          <mxGeometry relative="1" as="geometry" />
        </mxCell>
        <mxCell id="pwsCvkK8GLsZa0NGq3Bh-70" value="fecha o carrinho do vendedor" style="whiteSpace=wrap;html=1;fontSize=14;" parent="1" vertex="1">
          <mxGeometry x="1550" y="1630" width="180" height="80" as="geometry" />
        </mxCell>
        <mxCell id="pwsCvkK8GLsZa0NGq3Bh-73" value="" style="ellipse;whiteSpace=wrap;html=1;aspect=fixed;fontSize=30;fillColor=#303030;" parent="1" vertex="1">
          <mxGeometry x="2110" y="1650" width="40" height="40" as="geometry" />
        </mxCell>
        <mxCell id="pwsCvkK8GLsZa0NGq3Bh-82" style="edgeStyle=orthogonalEdgeStyle;rounded=0;orthogonalLoop=1;jettySize=auto;html=1;entryX=0;entryY=0.5;entryDx=0;entryDy=0;fontSize=14;" parent="1" source="pwsCvkK8GLsZa0NGq3Bh-77" target="pwsCvkK8GLsZa0NGq3Bh-36" edge="1">
          <mxGeometry relative="1" as="geometry" />
        </mxCell>
        <mxCell id="pwsCvkK8GLsZa0NGq3Bh-77" value="consulta carrinho pela matricula do vendedor" style="whiteSpace=wrap;html=1;fontSize=14;fillColor=#ffe6cc;strokeColor=#d79b00;" parent="1" vertex="1">
          <mxGeometry x="220" y="1640" width="147.5" height="60" as="geometry" />
        </mxCell>
        <mxCell id="pwsCvkK8GLsZa0NGq3Bh-78" value="cliente possui carrinho ABERTO?" style="rhombus;whiteSpace=wrap;html=1;fontSize=14;spacing=9;" parent="1" vertex="1">
          <mxGeometry x="730" y="1600" width="192.5" height="140" as="geometry" />
        </mxCell>
      </root>
    </mxGraphModel>
  </diagram>
</mxfile>
